<?xml version="1.0" encoding="UTF-8" standalone="no"?>
<!DOCTYPE svg PUBLIC "-//W3C//DTD SVG 20010904//EN" "http://www.w3.org/TR/2001/REC-SVG-20010904/DTD/svg10.dtd">
<svg version="1.0" xmlns="http://www.w3.org/2000/svg" width="900.000000pt" height="675.000000pt" viewBox="0 0 900.000000 675.000000" preserveAspectRatio="xMidYMid meet">
<metadata>
Created by potrace 1.10, written by Peter Selinger 2001-2011
</metadata>
<g transform="translate(0.000000,675.000000) scale(0.100000,-0.100000)" fill="#7332ea" stroke="none">
<path d="M4275 5021 c-104 -54 -280 -144 -390 -201 -110 -57 -263 -135 -340 -174 -77 -40 -152 -80 -167 -90 l-28 -18 0 -543 c0 -614 -9 -551 90 -600 30 -14 123 -61 205 -104 83 -43 247 -128 365 -188 118 -61 268 -138 333 -172 77 -40 129 -61 150 -60 18 0 64 18 102 39 39 21 134 71 213 110 153 77 164 89 107 120 -91 50 -194 106 -225 121 l-35 17 -74 -39 c-41 -21 -82 -39 -90 -39 -9 0 -52 19 -96 41 -44 23 -165 85 -270 139 -354 182 -409 211 -422 222 -10 8 -13 91 -13 383 0 206 3 380 6 389 3 8 43 34 87 57 159 82 384 198 544 279 l161 83 104 -52 c57 -29 112 -57 123 -63 23 -13 8 -5 205 -106 319 -163 355 -183 362 -200 4 -9 7 -186 7 -393 l1 -376 108 -53 c59 -29 130 -63 159 -77 28 -14 56 -22 62 -19 8 5 11 166 11 541 0 604 9 543 -93 596 -88 46 -325 168 -534 275 -98 50 -249 128 -336 172 -87 45 -168 82 -180 81 -12 0 -107 -44 -212 -98z"/>
<path d="M4435 3835 c-22 -13 -116 -62 -210 -109 -165 -84 -205 -107 -205 -119 0 -3 19 -15 43 -27 40 -21 68 -36 201 -110 l58 -32 79 41 c43 23 83 41 89 41 13 0 27 -7 285 -140 110 -57 265 -136 344 -176 79 -41 150 -79 157 -85 11 -9 14 -81 14 -394 l0 -383 -24 -16 c-23 -14 -216 -115 -565 -292 -79 -41 -149 -78 -155 -83 -34 -29 -61 -22 -206 52 -529 270 -632 324 -642 340 -4 7 -8 180 -8 386 1 338 -1 375 -16 392 -9 11 -22 19 -27 19 -6 0 -71 30 -145 67 -109 54 -135 64 -143 52 -5 -8 -9 -244 -9 -540 0 -405 3 -529 13 -542 6 -9 89 -55 182 -103 266 -136 519 -265 535 -273 8 -4 24 -13 35 -19 11 -6 100 -51 198 -101 201 -102 170 -99 307 -26 42 22 137 72 213 110 76 39 220 112 320 163 100 52 244 126 320 164 76 39 142 78 147 88 12 22 14 1079 2 1096 -4 6 -54 34 -112 63 -58 29 -199 102 -315 161 -115 60 -273 141 -350 180 -77 40 -187 96 -244 126 -57 30 -108 54 -115 53 -6 -1 -29 -11 -51 -24z"/>
</g>
</svg>