<?xml version="1.0" encoding="utf-8"?>
<!-- Generator: Adobe Illustrator 15.0.2, SVG Export Plug-In . SVG Version: 6.00 Build 0)  -->
<!DOCTYPE svg PUBLIC "-//W3C//DTD SVG 1.1//EN" "http://www.w3.org/Graphics/SVG/1.1/DTD/svg11.dtd">
<svg version="1.1" id="Layer_1" xmlns="http://www.w3.org/2000/svg" xmlns:xlink="http://www.w3.org/1999/xlink" x="0px" y="0px"
	 width="419px" height="315px" viewBox="0 0 419 315" enable-background="new 0 0 419 315" xml:space="preserve">
<g>
	<path opacity="1" fill="#000" enable-background="new    " d="M414,206.9h-0.5l-7.301-26.7c0.5-0.2,1-0.601,1.5-1c0.7-0.8,1.101-1.9,1-3
		c-0.1-2.2-1.899-3.9-4.1-3.9l-0.6-4.2l-6-39.399c1.8-0.5,3-2.3,2.899-4.2c-0.1-2.2-1.899-3.9-4.1-3.9h-0.3
		c-0.301,0-0.5,0.1-0.801,0.1L390,107.1l-6.9-16.5c1.3-0.8,2.1-2.2,2-3.8c-0.1-2.2-1.9-3.9-4.1-3.9h-0.301c-2.3,0.1-4,2.1-3.899,4.4
		c0.1,1.3,0.7,2.3,1.7,3L352.6,138c-0.2-0.1-0.5-0.2-0.7-0.2l1-35.2l0.4-13.1c1-0.1,1.899-0.6,2.5-1.3c0.7-0.8,1.1-1.9,1-3
		c-0.101-2.2-1.9-3.9-4.101-3.9L346.3,45.5c1.7-0.6,2.899-2.3,2.8-4.2c-0.101-2.2-1.9-3.9-4.101-3.9h-0.3c-1.3,0.1-2.3,0.7-3,1.7
		L280,5.6c0.2-0.5,0.3-1.1,0.3-1.7c-0.1-2.2-1.9-3.9-4.1-3.9H275.9c-2.199,0.1-4,2.1-3.899,4.3l-32.7,6.3l-33,6.3
		c-0.6-1.6-2.1-2.8-3.9-2.8h-0.3c-2.3,0.1-4,2.1-3.899,4.4c0,0.7,0.3,1.3,0.6,1.9l-13.5,11.1l-14.6,12c-0.7-0.7-1.7-1.1-2.801-1.1
		h-0.3c-1.399,0.1-2.6,0.9-3.3,2l-37.9-15.7c0.101-0.4,0.2-0.8,0.101-1.3c-0.101-2.2-1.9-3.9-4.101-3.9h-0.3
		c-2.3,0.1-4,2.1-3.899,4.4v0.2L63.8,41.7c-0.6-1.5-2.1-2.6-3.8-2.6h-0.3c-2.301,0.1-4,2.1-3.9,4.4c0.1,1.2,0.6,2.2,1.5,2.9L34.9,82
		C34.3,81.7,33.7,81.5,33,81.5h-0.3C31.6,81.6,30.6,82.1,29.9,82.9c-0.699,0.8-1.1,1.9-1,3c0.101,2.1,1.9,3.8,4,3.9l0.301,8.8
		L34.1,124c-2,0.4-3.5,2.2-3.399,4.3c0,0.5,0.199,0.9,0.3,1.4l-21.3,13C9.1,141.6,8,141,6.7,141H6.4c-2.3,0.1-4,2.1-3.899,4.4
		c0.1,1.9,1.6,3.5,3.399,3.8l-1.3,43.6c-2.2,0.2-3.8,2.101-3.7,4.3C1,199.3,2.8,201,5,201h0.3c0.8,0,1.5-0.3,2.1-0.7l35.2,37.9
		c-0.6,0.8-1,1.8-0.899,2.8c0.1,2,1.6,3.5,3.5,3.8V268c-1,0.1-1.9,0.6-2.5,1.3c-0.7,0.8-1.101,1.9-1,3c0.1,2.2,1.899,3.9,4.1,3.9
		h0.3c0.9-0.101,1.7-0.4,2.3-0.9l25.4,24.2c-0.5,0.7-0.8,1.7-0.8,2.6c0.1,2.2,1.899,3.9,4.1,3.9h0.3c1.101-0.1,2.101-0.6,2.801-1.4
		c0.699-0.8,1.1-1.899,1-3c0-0.3-0.101-0.6-0.101-0.8l39.5-17.1c0.7,1.2,2,2,3.5,2h0.3c1.101-0.101,2.101-0.601,2.801-1.4l0.1-0.1
		l4.8,2.899l11.8,7.101c-0.199,0.6-0.399,1.2-0.3,1.8c0.101,2.2,1.9,3.9,4.101,3.9h0.3c1.1-0.101,2.1-0.601,2.8-1.4s1.1-1.9,1-3
		c0-0.4-0.1-0.8-0.3-1.2l30.399-16.5c0.801,1,2,1.7,3.301,1.7h0.3c1.1-0.1,2.1-0.6,2.8-1.3l43.4,29.899
		c-0.301,0.601-0.5,1.301-0.4,2.101c0.1,2.2,1.9,3.899,4.1,3.899h0.301c1.1-0.1,2.1-0.6,2.8-1.399c0.6-0.7,0.899-1.5,1-2.4l57.7-4.1
		c0.399,1.899,2.1,3.2,3.999,3.2h0.301c1.1-0.101,2.1-0.601,2.8-1.4c0.5-0.6,0.8-1.2,0.899-2l26.601,1.2v0.2
		c0.1,2.199,1.899,3.899,4.1,3.899h0.3c1.101-0.1,2.101-0.6,2.801-1.399c0.699-0.801,1.1-1.9,1-3c-0.101-1.2-0.7-2.2-1.5-2.9
		l39-51.5c0.6,0.3,1.3,0.5,2,0.5h0.3c1.1-0.1,2.1-0.6,2.8-1.4c0.7-0.8,1.1-1.899,1-3c-0.101-0.899-0.4-1.699-0.9-2.3l28.5-31.1
		l0.4-0.4c0.7,0.5,1.5,0.8,2.399,0.8h0.301c2.3-0.1,4-2.1,3.899-4.399C417.999,208.6,416.199,206.9,414,206.9L414,206.9z
		 M412.4,207.2c-1.6,0.7-2.6,2.2-2.5,4v0.2l-16.2,4.8l-18.3,5.399c-0.2-0.5-0.5-0.899-0.899-1.3l19.3-27.6l8.899-12.8
		c0.601,0.3,1.2,0.5,1.8,0.5h0.5L412.4,207.2L412.4,207.2z M379.5,244.4h-0.301c-0.1,0-0.3,0-0.399,0.1l-5.4-17.3
		c0.5-0.2,0.9-0.601,1.3-1c0.7-0.8,1.101-1.9,1-3c0-0.101,0-0.2-0.1-0.3l17.1-5.101l17.4-5.1c0.1,0.3,0.3,0.6,0.5,0.899l-28.9,31.5
		C381.199,244.7,380.4,244.4,379.5,244.4L379.5,244.4z M375.699,247.1l-37.5-7.699v-0.5c0-0.301-0.1-0.5-0.1-0.801l30.1-12.5
		c0.7,1.2,2,2,3.5,2H372c0.1,0,0.3,0,0.399-0.1l5.4,17.3C376.8,245.3,376,246.1,375.699,247.1L375.699,247.1z M334.3,303L307,257.9
		c0.199-0.101,0.3-0.301,0.5-0.4c0.699-0.8,1.1-1.9,1-3c0-0.4-0.101-0.8-0.2-1.1l22.6-11.9c0.7,0.9,1.7,1.5,2.8,1.7l1.4,59.6
		C334.699,302.8,334.499,302.9,334.3,303z M300.9,300.8c-1.3,0.101-2.5,0.8-3.1,1.9l-24.7-11.2l-19.6-8.9
		c0.1-0.5,0.2-0.899,0.2-1.399c0-0.3-0.101-0.7-0.2-1l44.3-21.5l3.199-1.601c0.601,0.9,1.5,1.5,2.601,1.7L300.9,300.8L300.9,300.8z
		 M232.4,306.8L189,277c0.1-0.3,0.2-0.5,0.3-0.8l56.1,5.5v0.1c0.101,1.3,0.801,2.4,1.801,3.101L236.7,305.8
		c-0.4-0.1-0.801-0.2-1.301-0.2h-0.3C234,305.6,233.1,306.1,232.4,306.8L232.4,306.8z M183.8,271.3l-21.3-38.5
		c0.5-0.399,0.899-0.8,1.2-1.399L209.6,245.3l13.8,4.2c0,0.3-0.1,0.6,0,0.9c0,0.5,0.101,0.899,0.301,1.3L188.4,272.6
		c-0.8-0.899-1.899-1.5-3.199-1.5H184.9C184.6,271,184.2,271.2,183.8,271.3L183.8,271.3z M124.8,277.3v-42c1-0.1,1.8-0.6,2.5-1.3
		c0.6-0.7,0.9-1.5,1-2.3l12.1-0.5l15.9-0.7c0.2,0.8,0.7,1.5,1.3,2L126,277.7C125.6,277.5,125.2,277.4,124.8,277.3L124.8,277.3z
		 M121.1,278.7c-0.3,0.399-0.6,0.8-0.8,1.3l-19-4.2l-1.4-0.3V275c-0.1-1.1-0.6-2.1-1.3-2.8l1.601-2.601l22.199-34.5
		c0.4,0.2,0.7,0.301,1.101,0.301v42C122.6,277.5,121.7,277.9,121.1,278.7L121.1,278.7z M50,271.7c-0.2-1.9-1.601-3.5-3.5-3.7v-23.2
		c0.899-0.1,1.8-0.6,2.399-1.3L92.2,273.3c-0.2,0.3-0.301,0.7-0.4,1L50,271.7L50,271.7z M9,195.6c-0.5-1.5-1.7-2.6-3.2-2.8l1.3-43.6
		c0.9-0.1,1.8-0.5,2.4-1.2L59.4,185.4c-0.3,0.6-0.5,1.3-0.5,2L9,195.6z M35.3,123.8l-0.9-24.1L34,89.6c0.399-0.1,0.8-0.3,1.1-0.5
		l23.5,31.4c-0.7,0.8-1,1.8-1,2.8l-8.6,1.5l-10.3,1.8C38.3,125.1,36.9,124,35.3,123.8z M37.1,85.1L60.7,78.4L84.4,71.6
		c0.301,0.7,0.801,1.3,1.4,1.7l-23,45.9c-0.3-0.1-0.7-0.1-1-0.1h-0.3c-0.7,0-1.4,0.3-1.9,0.6L36.1,88.3c0.7-0.8,1.101-1.9,1-3V85.1z
		 M120.5,31.2c0.6,0.4,1.3,0.6,2.1,0.6h0.3c0.2,0,0.4-0.1,0.5-0.1l23.9,67.5c-0.6,0.3-1,0.7-1.4,1.2L92,71.3
		c0.2-0.5,0.3-1.1,0.2-1.7c-0.101-1-0.5-1.8-1.101-2.5L120.5,31.2z M171.4,48.8l33.5,16.7c-0.199,0.5-0.199,1-0.199,1.6
		c0,0.4,0.1,0.7,0.199,1L177.7,81.7c-0.7-1.1-2-1.8-3.4-1.8h-0.1l-4.9-29.6C170.2,50.1,170.9,49.5,171.4,48.8L171.4,48.8z M205,21.5
		L249.4,65.9c-0.399,0.5-0.6,1.1-0.8,1.7l-35.7-1.3c-0.199-2.1-1.899-3.6-4-3.7l-0.6-4.5l-4.6-35.9C204.1,22.1,204.6,21.8,205,21.5
		L205,21.5z M276.1,8.2l9.8,68.7c-1.1,0.3-1.899,1.1-2.5,2l-26.8-9.8c0.101-0.4,0.101-0.7,0.101-1.1c-0.101-1.5-1-2.7-2.2-3.4
		l0.7-1.9l20-54.6C275.6,8.2,275.8,8.2,276.1,8.2z M345.1,45.8h0.1l6.4,35.8c-0.7,0.2-1.4,0.6-1.9,1.2c-0.5,0.5-0.8,1.2-0.899,1.8
		l-57.6-4.1c0-0.5-0.2-1-0.4-1.5l4.4-3L342,44.5C342.8,45.3,343.9,45.8,345.1,45.8z M396.8,128.9l6.6,43.6
		c-0.8,0.2-1.399,0.7-1.899,1.2l-46.4-30c0.3-0.6,0.4-1.3,0.4-2c0-0.2-0.101-0.4-0.101-0.6l15.9-6l21.899-8.3
		C393.9,128,395.199,128.9,396.8,128.9z M371.8,225.8h-0.101c-1.199,0-2.199-0.899-2.3-2.2c-0.1-1.3,0.9-2.399,2.2-2.5h0.1
		c1.2,0,2.2,0.9,2.301,2.2C374.1,224.6,373.1,225.7,371.8,225.8z M335.699,235.3l10.5-41l1.5-5.899h0.7c0.5,0,0.9-0.2,1.3-0.301
		L369,220.3c-1,0.8-1.601,2.101-1.5,3.4c0,0.3,0.1,0.5,0.1,0.8l-30,12.5C337.199,236.2,336.5,235.6,335.699,235.3z M330.199,240.5
		l-22.6,11.9c-0.7-0.9-1.7-1.5-2.9-1.7l-1.3-34.2c0.7-0.1,1.4-0.5,2-1l25.101,21.4c-0.4,0.699-0.7,1.5-0.601,2.399
		C330,239.8,330.1,240.1,330.199,240.5z M300.199,255c0,0.3,0.101,0.7,0.2,1l-2.699,1.3l-44.9,21.8c-0.3-0.399-0.6-0.699-0.9-1
		L273,240.2l6.3-11.4c0.5,0.2,0.9,0.3,1.5,0.3h0.3c0.601,0,1.3-0.199,1.8-0.6l18.5,23.4C300.6,252.7,300.1,253.8,300.199,255
		L300.199,255z M247.2,281.5c-0.101-1.3,0.899-2.4,2.199-2.5h0.101c1.2,0,2.2,0.9,2.3,2.2s-0.9,2.399-2.2,2.5h-0.1
		C248.3,283.7,247.3,282.8,247.2,281.5z M189.1,273.6l35.3-20.899c0.801,0.899,1.9,1.5,3.2,1.5h0.3c0.601,0,1.101-0.2,1.601-0.4
		l6,8.601l11.2,16c-0.601,0.5-1,1.199-1.2,2l-56.101-5.5V274.8C189.4,274.4,189.2,274,189.1,273.6L189.1,273.6z M160.3,225.3
		l-3.6-29.2c0.8-0.199,1.5-0.6,2-1.199c0.399-0.5,0.699-1,0.8-1.5l16.7,2.5L223.6,203.1v0.301c0,0.199,0.101,0.5,0.101,0.699
		L164.1,227.7C163.3,226.2,161.9,225.3,160.3,225.3L160.3,225.3z M157.1,226.7c-0.6,0.7-1,1.7-1,2.6L141,230l-12.7,0.6
		c-0.1-0.8-0.5-1.5-1-2l13.5-16.8l12.8-16c0.601,0.4,1.3,0.601,2,0.601l3.7,29.199C158.3,225.6,157.7,226.1,157.1,226.7z
		 M124.3,233.6h-0.1c-1.2,0-2.2-0.899-2.301-2.199c-0.1-1.301,0.9-2.4,2.2-2.5h0.101c1.199,0,2.199,0.899,2.3,2.199
		C126.6,232.4,125.6,233.5,124.3,233.6z M96.5,271.1l-0.9-41.3L95.2,210.3c0.8-0.1,1.5-0.5,2-1l23.5,19.8
		c-0.4,0.7-0.7,1.5-0.601,2.4c0.101,1.1,0.601,2.1,1.4,2.8L99.2,269l-1.601,2.5C97.3,271.3,96.9,271.1,96.5,271.1z M63.6,183.3
		l-0.7-27.7L62.2,127.2c0.6-0.1,1.1-0.2,1.6-0.5l21.4,25.5l14,16.7c-0.7,0.8-1.101,1.899-1,3c0,0.199,0.1,0.5,0.1,0.699L66.7,185.2
		C66,184.3,64.9,183.5,63.6,183.3z M59.5,123.3c-0.101-1.3,0.899-2.4,2.2-2.5h0.1c1.2,0,2.2,0.9,2.3,2.2
		c0.101,1.3-0.899,2.4-2.2,2.5h-0.1C60.6,125.5,59.6,124.6,59.5,123.3z M88.1,74h0.3c0.5,0,0.9-0.1,1.301-0.3l24.399,41l1.2,2.1
		c-0.9,0.7-1.4,1.7-1.5,2.8L106,120l-40.2,2.2c-0.2-1.2-0.9-2.1-1.9-2.7l22.9-45.8C87.3,74,87.7,74,88.1,74z M91.2,72.6
		c0.1-0.1,0.1-0.2,0.199-0.3l25.9,13.9l28,15.1c-0.2,0.5-0.3,1.1-0.2,1.7c0,0.4,0.101,0.8,0.3,1.2L122,117.2l-0.8,0.4
		c-0.801-1-2-1.6-3.301-1.6h-0.3c-0.5,0-0.899,0.2-1.3,0.3L90.7,73.1C90.9,73,91.1,72.8,91.2,72.6z M174.2,81.7h0.1
		c1.2,0,2.2,0.9,2.3,2.2c0.101,1.3-0.899,2.4-2.2,2.5h-0.1c-1.2,0-2.2-0.9-2.3-2.2C171.9,82.9,172.9,81.8,174.2,81.7z M212.8,67.5
		l35.7,1.3c0.1,1.1,0.7,2.1,1.5,2.8l-13.2,22.7c-0.5-0.2-1-0.3-1.5-0.3H235c-0.7,0-1.4,0.3-1.9,0.6L211.7,69.5
		C212.4,69,212.7,68.3,212.8,67.5L212.8,67.5z M256.3,70.3l0.3,0.1l26.5,9.6c-0.1,0.4-0.1,0.7-0.1,1.1c0,0.2,0,0.3,0.1,0.5l-44,14.7
		c-0.3-0.5-0.7-1-1.1-1.4l13.2-22.7c0.5,0.2,1,0.3,1.5,0.3h0.3C254.4,72.4,255.6,71.5,256.3,70.3L256.3,70.3z M287.4,85
		c0.2,0,0.4-0.1,0.5-0.1L304,130.5c-0.601,0.3-1.101,0.7-1.4,1.3l-63.2-32.3c0.2-0.5,0.301-1,0.2-1.6c0-0.2,0-0.3-0.1-0.5l44-14.7
		c0.7,1.4,2.1,2.3,3.7,2.3H287.4L287.4,85z M351.5,144.3H351.4c-1.2,0-2.2-0.9-2.3-2.2c-0.1-1.3,0.9-2.4,2.2-2.5h0.1
		c1.2,0,2.2,0.9,2.3,2.2C353.699,143.1,352.8,144.2,351.5,144.3z M350.4,146L349,165.5l-1.101,14.6c-0.7,0-1.3,0.301-1.899,0.601
		l-37-43.9c0.399-0.4,0.699-0.9,0.8-1.5l37.399,6.4v0.4C347.3,144.1,348.699,145.6,350.4,146z M350.5,184.1
		c0.1,1.301-0.9,2.4-2.2,2.5h-0.101c-1.2,0-2.2-0.899-2.3-2.199c-0.1-1.301,0.9-2.4,2.2-2.5h0.1C349.4,182,350.4,182.9,350.5,184.1z
		 M302.9,214.8h-0.1c-1.2,0-2.2-0.899-2.3-2.2c-0.101-1.3,0.899-2.399,2.199-2.5h0.101c1.2,0,2.2,0.9,2.3,2.2
		S304.199,214.7,302.9,214.8z M249.5,277.3h-0.3c-0.601,0-1.101,0.2-1.601,0.4l-11.1-15.9l-6.2-8.8l0.3-0.3c0.7-0.8,1.101-1.9,1-3
		c0-0.3-0.1-0.601-0.2-0.9l45.9-21.6c0.3,0.399,0.6,0.7,0.9,1l-6.801,12.3l-20.5,37C250.5,277.4,250,277.3,249.5,277.3z
		 M155.7,194.4H155.6c-1.2,0-2.2-0.9-2.3-2.2s0.9-2.4,2.2-2.5h0.1c1.2,0,2.2,0.899,2.3,2.2C157.9,193.2,156.9,194.3,155.7,194.4z
		 M126.3,227.7c-0.6-0.4-1.3-0.601-2.1-0.601H123.9c-1,0.101-1.8,0.5-2.5,1l-23.5-19.8c0.5-0.7,0.7-1.6,0.601-2.399V205.8l28.5-6.6
		l24.7-5.7c0.199,0.5,0.5,0.9,0.8,1.3L126.3,227.7L126.3,227.7z M64.9,125.9c0.601-0.7,0.9-1.5,1-2.4l41.301-2.3l6.6-0.4
		c0.3,1.3,1.1,2.4,2.3,2.9L102.8,167.6c-0.2,0-0.4-0.1-0.6-0.1H101.9c-0.699,0-1.3,0.3-1.899,0.6l-14.3-17L64.6,126
		C64.8,126,64.9,126,64.9,125.9z M144.4,153.8h0.101c1.2,0,2.2,0.9,2.3,2.2s-0.9,2.4-2.2,2.5h-0.1c-1.2,0-2.2-0.9-2.3-2.2
		C142.1,154.9,143.1,153.8,144.4,153.8z M184.9,120.8H185c1.2,0,2.2,0.9,2.3,2.2s-0.9,2.4-2.2,2.5H185c-1.2,0-2.2-0.9-2.3-2.2
		C182.6,122,183.6,120.9,184.9,120.8z M308.1,137.6l37,43.9c-0.4,0.4-0.7,1-0.9,1.6l-56.899-8.3l-10.3-1.5V173
		c-0.101-1-0.5-1.8-1.101-2.5l17.4-20.8l10.2-12.2c0.6,0.4,1.399,0.6,2.199,0.6H306C306.9,138.2,307.5,138,308.1,137.6L308.1,137.6z
		 M228.2,246v-38.9c1-0.1,1.8-0.6,2.5-1.3c0.199-0.2,0.3-0.399,0.5-0.6l42.1,17.3l3.7,1.5c-0.101,0.4-0.2,0.8-0.101,1.3
		c0,0.3,0.101,0.601,0.2,0.9L231,247.8C230.4,246.8,229.3,246.2,228.2,246z M225.9,199.3l-8.1-12.8l-6.4-10.1
		c0.7-0.601,1.301-1.5,1.4-2.5h56.1l0.301,1.199L230.6,200.4c-0.782-0.895-1.912-1.404-3.1-1.4h-0.3
		C226.8,199,226.3,199.1,225.9,199.3L225.9,199.3z M155.5,188h-0.3c-0.101,0-0.2,0-0.4,0.1l-6.6-21.6l-2-6.7c0.5-0.2,1-0.6,1.3-1
		c0.3-0.3,0.5-0.7,0.7-1.1l21.6,5.8l34.8,9.3v0.601c0,0.199,0.101,0.399,0.101,0.6l-6.7,2.3L159,190
		C158.5,188.9,157.1,188,155.5,188L155.5,188z M151.9,190.1l-1.699-0.6l-44-16.8c0.1-0.4,0.1-0.8,0.1-1.2c0-0.2-0.1-0.4-0.1-0.6
		L140.9,158.1c0.7,1.301,2.101,2.2,3.601,2.2h0.3c0.1,0,0.2,0,0.4-0.1l8.6,28.2C153,188.8,152.3,189.4,151.9,190.1L151.9,190.1z
		 M206.5,173.3c-0.101-1.3,0.899-2.399,2.2-2.5h0.1c1.2,0,2.2,0.9,2.3,2.2c0.101,1.3-0.899,2.4-2.2,2.5h-0.1
		C207.6,175.5,206.5,174.6,206.5,173.3z M235.4,102.2h0.301c0.399,0,0.699-0.1,1-0.2l20.699,41.4l13.301,26.5
		c-0.9,0.6-1.601,1.6-1.7,2.8H212.9c-0.199-1.4-1-2.5-2.1-3.101l23.899-67.399H235.4L235.4,102.2z M275.3,173.2
		c0.1,1.3-0.9,2.399-2.2,2.5H273c-1.2,0-2.2-0.9-2.3-2.2c-0.101-1.3,0.899-2.4,2.199-2.5H273C274.2,171,275.2,171.9,275.3,173.2z
		 M277.3,222.9l-4.1-1.7L231.5,204c0.1-0.4,0.2-0.8,0.1-1.3c0-0.5-0.2-1-0.399-1.5l38.6-25.3c0.8,0.899,1.9,1.399,3.1,1.399
		l1.2,8.101l5.4,35.5C278.6,221.4,277.8,222,277.3,222.9z M302.8,136.9l-10.3,12.3l-17.4,20.7c-0.6-0.4-1.399-0.601-2.2-0.601h-0.3
		c-0.399,0-0.7,0.101-1,0.2l-34-67.9c0.4-0.3,0.7-0.6,1-1l63.2,32.3c-0.2,0.5-0.3,1-0.2,1.6C301.8,135.4,302.199,136.2,302.8,136.9
		L302.8,136.9z M237.7,98c0.1,1.3-0.9,2.4-2.2,2.5H235.4c-1.199,0-2.199-0.9-2.3-2.2c-0.1-1.3,0.9-2.4,2.2-2.5h0.1
		C236.6,95.8,237.6,96.7,237.7,98z M233.5,101.8l-23.9,67.4c-0.3-0.101-0.6-0.101-0.8-0.101h-0.3c-0.3,0-0.7,0.101-1,0.2l-13.101-28
		l-6.899-14.8c0.2-0.2,0.5-0.4,0.7-0.6c0.699-0.8,1.1-1.9,1-3c0-0.3-0.101-0.6-0.2-0.9l43-21.5C232.4,101,232.9,101.4,233.5,101.8z
		 M182.4,126.3c0.7,0.6,1.601,1,2.601,1h0.3c0.4,0,0.8-0.1,1.1-0.2l7.2,15.4l12.9,27.4c-0.7,0.5-1.2,1.1-1.5,1.899l-34.4-9.2
		L148.7,156.7V156c0-0.7-0.301-1.3-0.601-1.8L182.4,126.3L182.4,126.3z M140.4,156.3c0,0.2,0.101,0.4,0.101,0.6l-34.7,12.8
		c-0.4-0.8-1.1-1.4-1.9-1.8L117.2,124c0.199,0,0.399,0.1,0.6,0.1h0.3c0.601,0,1.2-0.2,1.7-0.5l21.8,29.5
		C140.8,154,140.4,155.1,140.4,156.3L140.4,156.3z M120.2,119.9c0.1,1.3-0.9,2.4-2.2,2.5H117.9c-1.199,0-2.199-0.9-2.3-2.2
		c-0.1-1.3,0.9-2.4,2.2-2.5h0.1C119.1,117.7,120.2,118.7,120.2,119.9z M99.9,171.9c-0.1-1.301,0.9-2.4,2.2-2.5h0.101
		c1.199,0,2.199,0.899,2.3,2.199c0.1,1.301-0.9,2.4-2.2,2.5h-0.1C101,174.1,100,173.1,99.9,171.9z M102.2,175.9h0.3
		c1.1-0.101,2.1-0.601,2.8-1.4c0.2-0.2,0.4-0.5,0.5-0.7l43,16.4l2.7,1c-0.101,0.399-0.101,0.8-0.101,1.2v0.1L98.2,204.8
		c-0.4-1.1-1.301-1.899-2.4-2.399l6-26.5C102,175.8,102.1,175.9,102.2,175.9z M159.5,191.3L200,177l5.2-1.8c0.699,1.3,2,2.1,3.6,2.1
		h0.3c0.5,0,0.9-0.2,1.4-0.3l6.1,9.6L225,200c-0.601,0.5-1,1.2-1.3,1.9l-45.801-7L159.7,192.1v-0.3
		C159.6,191.7,159.6,191.5,159.5,191.3z M225.3,203.2c-0.1-1.3,0.9-2.4,2.2-2.5h0.1c1.2,0,2.2,0.899,2.3,2.2
		c0.101,1.3-0.899,2.399-2.199,2.5H227.6C226.4,205.4,225.3,204.5,225.3,203.2z M227.4,247.8h0.101c1.2,0,2.2,0.9,2.3,2.2
		s-0.9,2.4-2.2,2.5h-0.1c-1.2,0-2.2-0.9-2.3-2.2C225.2,248.9,226.2,247.8,227.4,247.8z M278.5,225.2c-0.101-1.3,0.899-2.4,2.2-2.5
		h0.1c1.2,0,2.2,0.899,2.3,2.2c0.101,1.3-0.899,2.399-2.2,2.5h-0.1C279.6,227.3,278.6,226.4,278.5,225.2z M280.8,220.9l-5.2-33.9
		l-1.5-9.8c0.3-0.101,0.5-0.2,0.8-0.3l24.8,32.699c-0.8,0.801-1.3,1.9-1.2,3.101c0,0.399,0.101,0.899,0.301,1.2l-14.9,8.5
		C283.3,221.5,282.199,220.9,280.8,220.9L280.8,220.9z M302.8,208.4h-0.3c-0.601,0-1.2,0.199-1.7,0.5L276,176.2l0.2-0.2
		c0.399-0.5,0.699-1,0.899-1.6l15.601,2.3l51.499,7.5v0.3c0,0.5,0.2,1,0.301,1.4l-12.7,7.899l-25.8,16
		C305.199,208.9,304,208.4,302.8,208.4L302.8,208.4z M308.199,134c0.101,1.3-0.899,2.4-2.2,2.5h-0.1c-1.2,0-2.2-0.9-2.3-2.2
		c-0.101-1.3,0.899-2.4,2.2-2.5h0.1C307.1,131.8,308.1,132.8,308.199,134z M211,70.3L232.4,95.4c-0.699,0.8-1.1,1.8-1,3
		c0,0.4,0.101,0.7,0.2,1l-43,21.5c-0.3-0.5-0.7-0.9-1.2-1.2l18.7-45l1.601-4c0.3,0.1,0.699,0.1,1,0.1h0.3
		C209.7,70.9,210.4,70.6,211,70.3z M206.7,70.3l-2.301,5.5l-18.1,43.4c-0.4-0.1-0.8-0.2-1.2-0.2h-0.3h-0.1L176,87.8
		c1.5-0.7,2.6-2.2,2.5-4c0-0.4-0.101-0.7-0.2-1l27.2-13.6C205.7,69.6,206.2,70,206.7,70.3z M174.3,88.1h0.6l8.7,31.2
		c-0.6,0.2-1.2,0.6-1.6,1.1c0,0.1-0.101,0.1-0.101,0.2l-28.8-16.3c0.2-0.5,0.3-1.1,0.3-1.7s-0.199-1.2-0.5-1.7L162,94l9.5-7.1
		C172.2,87.7,173.2,88.1,174.3,88.1L174.3,88.1z M152.5,105.3l28.7,16.2c-0.2,0.6-0.301,1.2-0.301,1.8c0,0.7,0.301,1.4,0.7,2
		L147.3,153c-0.5-0.5-1.2-0.8-1.9-1l2.4-27.5l1.6-17.6C150.7,106.9,151.8,106.2,152.5,105.3L152.5,105.3z M146.7,124.5l-2.4,27.5
		c-0.6,0-1.2,0.2-1.7,0.5L120.8,123c0.8-0.8,1.3-1.9,1.2-3.2c0-0.4-0.101-0.8-0.3-1.2l24.199-13.3c0.601,0.8,1.4,1.3,2.301,1.5
		L146.7,124.5L146.7,124.5z M67.1,186.4L98.7,173.8c0.5,0.8,1.199,1.4,2.1,1.8l-6,26.5h-0.6c-1.2,0.101-2.2,0.7-2.9,1.5L79.2,196.4
		L66.9,189c0.2-0.6,0.4-1.2,0.301-1.8C67.2,186.9,67.1,186.7,67.1,186.4z M92.1,206.4c-0.1-1.301,0.9-2.4,2.2-2.5h0.1
		c1.2,0,2.2,0.899,2.301,2.199c0.1,1.301-0.9,2.4-2.2,2.5H94.4C93.2,208.5,92.2,207.6,92.1,206.4z M164.3,228.7L224,205.1
		c0.6,1.101,1.7,1.801,3,2V246c-1.4,0.2-2.601,1.1-3.101,2.3l-59.6-18c0.1-0.399,0.1-0.8,0.1-1.2C164.3,229,164.3,228.9,164.3,228.7
		z M302.3,251.2l-18.5-23.4l0.1-0.1c0.7-0.8,1.101-1.9,1-3c0-0.4-0.1-0.9-0.3-1.2l14.9-8.5c0.699,0.9,1.699,1.4,2.8,1.6l1.3,34.2
		C303.1,250.8,302.699,251,302.3,251.2z M331.4,236l-25.1-21.4c0.5-0.699,0.7-1.6,0.6-2.399c0-0.5-0.2-1-0.3-1.4l27.9-17.3l10.6-6.6
		c0.4,0.5,0.9,0.899,1.6,1.199l-0.399,1.5L334.5,235h-0.7C332.9,235.1,332,235.4,331.4,236L331.4,236z M371.699,219.3h-0.3
		c-0.5,0-0.899,0.2-1.3,0.3L350.8,187.4c0.2-0.101,0.3-0.301,0.5-0.5c0.7-0.801,1-1.7,1-2.7L375,181l25.699-3.6
		c0.2,0.699,0.601,1.399,1.101,1.899l-8.3,11.8l-19.9,28.5C373,219.5,372.4,219.3,371.699,219.3L371.699,219.3z M400.499,176.4
		l-25.8,3.6l-22.6,3.1c-0.4-1.399-1.601-2.6-3.101-2.899l1-13.5l1.5-20.7c1.101-0.1,2.101-0.6,2.801-1.4l46.399,30
		C400.6,175.3,400.499,175.8,400.499,176.4L400.499,176.4z M350.9,137.9c-1.6,0.2-3,1.3-3.4,2.8l-37.399-6.5v-0.4
		c-0.101-0.9-0.4-1.6-0.9-2.3L350.4,89c0.5,0.4,1.101,0.6,1.8,0.7L351.8,104L350.9,137.9L350.9,137.9z M308.3,130.8
		c-0.7-0.5-1.5-0.8-2.4-0.8h-0.3c-0.2,0-0.4,0.1-0.5,0.1L289,84.5c1.1-0.6,1.8-1.6,2.1-2.8l57.6,4.1c0.101,0.9,0.4,1.7,0.9,2.3
		L308.3,130.8L308.3,130.8z M289.4,80.7c0.101,1.3-0.899,2.4-2.2,2.5h-0.1c-1.2,0-2.2-0.9-2.3-2.2c-0.101-1.3,0.899-2.4,2.2-2.5h0.1
		C288.3,78.6,289.3,79.5,289.4,80.7z M255,68.2c0.1,1.3-0.9,2.4-2.2,2.5h-0.1c-1.2,0-2.2-0.9-2.301-2.2c-0.1-1.3,0.9-2.4,2.2-2.5
		h0.101C253.9,66,254.9,67,255,68.2z M208.6,64.5h0.101c1.199,0,2.199,0.9,2.3,2.2c0.1,1.3-0.9,2.4-2.2,2.5h-0.1
		c-1.2,0-2.2-0.9-2.301-2.2C206.4,65.7,207.4,64.5,208.6,64.5z M168,50.5l5,29.6c-1.8,0.6-3,2.3-2.9,4.2c0,0.6,0.2,1.2,0.5,1.7
		l-9.1,6.8l-9.5,7.1c-0.3-0.3-0.7-0.6-1.101-0.8l16.2-48.7C167.6,50.5,167.8,50.5,168,50.5L168,50.5z M151.6,102.7
		c0.101,1.3-0.899,2.4-2.2,2.5h-0.1c-1.2,0-2.2-0.9-2.3-2.2c-0.101-1.3,0.899-2.4,2.2-2.5h0.1C150.5,100.5,151.5,101.4,151.6,102.7z
		 M90.5,69.8c0.1,1.3-0.9,2.4-2.2,2.5h-0.1c-1.2,0-2.2-0.9-2.301-2.2c-0.1-1.3,0.9-2.4,2.2-2.5H88.2C89.4,67.6,90.4,68.5,90.5,69.8z
		 M38,130.6c0.7-0.8,1.1-1.8,1-2.9l10.5-1.9l8.399-1.5c0.5,1.4,1.601,2.5,3.101,2.8l0.7,27.7l0.699,28.4c-0.199,0-0.399,0.1-0.5,0.1
		L37.2,131.1C37.5,131.1,37.7,130.9,38,130.6z M60.8,187.6c-0.1-1.3,0.9-2.399,2.2-2.5h0.1c1.2,0,2.2,0.9,2.3,2.2
		c0.101,1.3-0.899,2.4-2.199,2.5H63.1C61.9,189.7,60.8,188.8,60.8,187.6z M63.1,191.5h0.3c1.101-0.1,2.101-0.6,2.801-1.4l0.1-0.1
		l12.1,7.2L90.7,204.6c-0.2,0.601-0.4,1.2-0.301,1.801c0,0.6,0.2,1.1,0.5,1.6L49,237.8c-0.3-0.399-0.7-0.6-1.2-0.899l14.7-45.5
		C62.6,191.5,62.8,191.5,63.1,191.5z M91.4,209c0.601,0.7,1.5,1.1,2.5,1.2l0.5,19.899l0.9,40.9c-0.9,0.1-1.8,0.6-2.4,1.2L49.5,242.4
		C49.8,241.8,50,241.1,49.9,240.3c0-0.6-0.199-1.1-0.5-1.6L91.4,209z M93.6,275.3c-0.1-1.3,0.9-2.399,2.2-2.5h0.1
		c1.2,0,2.2,0.9,2.301,2.2c0.1,1.3-0.9,2.4-2.2,2.5H95.9C94.7,277.5,93.6,276.5,93.6,275.3z M160.4,231.7h-0.1
		c-1.2,0-2.2-0.9-2.3-2.2c-0.101-1.3,0.899-2.4,2.2-2.5h0.1c1.2,0,2.2,0.9,2.3,2.2C162.6,230.5,161.6,231.6,160.4,231.7z
		 M237.8,306.2l10.5-20.9c0.4,0.101,0.8,0.2,1.3,0.2h0.3c1.101-0.1,2.101-0.6,2.801-1.4c0.1-0.199,0.3-0.3,0.399-0.5L272,292.2
		l25.399,11.5c-0.1,0.3-0.1,0.6-0.1,0.899l-57.7,4.101C239.2,307.7,238.6,306.8,237.8,306.2L237.8,306.2z M304.5,257.1H304.4
		c-1.2,0-2.2-0.899-2.3-2.199c-0.1-1.301,0.9-2.4,2.2-2.5h0.1c1.2,0,2.2,0.899,2.3,2.199C306.699,255.9,305.8,257,304.5,257.1z
		 M334.199,241.4h-0.1c-1.2,0-2.2-0.9-2.3-2.2c-0.101-1.3,0.899-2.4,2.2-2.5h0.1c1.2,0,2.2,0.899,2.3,2.2
		C336.5,240.2,335.5,241.3,334.199,241.4z M406.9,176.3c0.101,1.3-0.899,2.4-2.2,2.5h-0.1c-1.2,0-2.2-0.899-2.3-2.2
		c-0.101-1.3,0.899-2.399,2.2-2.5h0.1C405.8,174.1,406.8,175.1,406.9,176.3z M396.6,122.4h0.1c1.2,0,2.2,0.9,2.301,2.2
		c0.1,1.3-0.9,2.4-2.2,2.5h-0.101c-1.199,0-2.199-0.9-2.3-2.2C394.4,123.6,395.3,122.5,396.6,122.4z M381,84.8h0.1
		c1.2,0,2.2,0.9,2.3,2.2c0.101,1.3-0.899,2.4-2.2,2.5h-0.1c-1.2,0-2.2-0.9-2.3-2.2C378.699,86,379.699,84.9,381,84.8z M379.699,91
		c0.4,0.2,0.9,0.3,1.4,0.3h0.3c0.3,0,0.5-0.1,0.8-0.1l12.5,30.1c-0.399,0.2-0.7,0.5-1,0.8c-0.7,0.8-1.1,1.9-1,3
		c0,0.2,0.101,0.4,0.101,0.6l-22.4,8.5L355,140c-0.301-0.5-0.7-1-1.101-1.3L379.699,91z M355.1,85.4c0.1,1.3-0.9,2.4-2.2,2.5h-0.1
		c-1.2,0-2.2-0.9-2.3-2.2c-0.101-1.3,0.899-2.4,2.199-2.5h0.101C354,83.3,355,84.2,355.1,85.4z M344.9,39.4H345
		c1.199,0,2.199,0.9,2.3,2.2c0.1,1.3-0.9,2.4-2.2,2.5h-0.101c-1.199,0-2.199-0.9-2.3-2.2C342.699,40.6,343.6,39.5,344.9,39.4z
		 M341.199,40.3c-0.2,0.5-0.3,1.1-0.3,1.7s0.2,1.1,0.4,1.5l-47.8,32.3l-3.4,2.3c-0.8-0.8-1.8-1.4-3-1.4L277.3,8
		c0.9-0.3,1.6-0.8,2.1-1.5L341.199,40.3z M276,1.8h0.1c1.2,0,2.2,0.9,2.3,2.2c0.101,1.3-0.899,2.4-2.199,2.5H276.1
		c-1.2,0-2.2-0.9-2.3-2.2C273.7,3,274.7,1.9,276,1.8z M272.3,5.5c0.3,1,1,1.8,1.9,2.3l-19.4,52.9l-1.3,3.7
		c-0.3-0.1-0.601-0.1-0.8-0.1H252.4c-0.8,0.1-1.6,0.4-2.199,0.8l-44.4-44.4c0.6-0.7,0.9-1.7,0.8-2.6l32.7-6.3L272.3,5.5z
		 M202.4,15.9h0.101c1.2,0,2.2,0.9,2.3,2.2c0.1,1.3-0.9,2.4-2.2,2.5h-0.1c-1.2,0-2.2-0.9-2.3-2.2C200.1,17.1,201.1,16,202.4,15.9z
		 M186.3,32.3l13.5-11c0.7,0.7,1.7,1.1,2.7,1.1l4.6,35.4l0.7,5.1c-0.9,0.3-1.7,0.9-2.3,1.6L172,47.7c0.2-0.5,0.2-1,0.2-1.6
		c0-0.7-0.301-1.3-0.601-1.9L186.3,32.3z M167.9,44.1H168c1.2,0,2.2,0.9,2.3,2.2c0.1,1.3-0.9,2.4-2.2,2.5H168
		c-1.2,0-2.2-0.9-2.3-2.2C165.6,45.3,166.6,44.2,167.9,44.1z M164.1,45.4c-0.1,0.4-0.2,0.8-0.1,1.3c0.1,1.5,1,2.8,2.3,3.4l-0.3,0.8
		l-16,47.9c-0.2,0-0.5-0.1-0.7-0.1H149c-0.2,0-0.4,0.1-0.5,0.1l-23.9-67.5c0.4-0.2,0.8-0.5,1.2-0.9c0.2-0.2,0.3-0.4,0.5-0.6
		L164.1,45.4L164.1,45.4z M122.5,25.3h0.1c1.2,0,2.2,0.9,2.3,2.2C125,28.8,124,29.9,122.7,30H122.6c-1.2,0-2.2-0.9-2.3-2.2
		C120.2,26.5,121.2,25.4,122.5,25.3z M118.8,29.2c0.2,0.5,0.5,0.9,0.8,1.2l-29.3,36c-0.6-0.4-1.3-0.6-2.1-0.6H87.9
		C87,65.9,86.2,66.2,85.6,66.7l-2.2-2.1l-20.1-19c0.5-0.8,0.8-1.7,0.8-2.6v-0.2L118.8,29.2z M59.8,41h0.1c1.2,0,2.2,0.9,2.301,2.2
		c0.1,1.3-0.9,2.4-2.2,2.5H59.9c-1.199,0-2.199-0.9-2.3-2.2C57.6,42.2,58.5,41,59.8,41z M60,47.4h0.3c0.9-0.1,1.6-0.4,2.3-0.9
		L83.7,66.4l1.199,1.1c-0.5,0.7-0.8,1.6-0.8,2.6v0.3L60.8,77l-24,6.9c-0.2-0.5-0.5-1-0.9-1.4L58.3,47C58.8,47.3,59.4,47.4,60,47.4z
		 M30.7,85.7C30.6,84.4,31.6,83.3,32.9,83.2H33c1.2,0,2.2,0.9,2.3,2.2c0.1,1.3-0.9,2.4-2.2,2.5H33C31.8,87.9,30.8,87,30.7,85.7z
		 M34.7,125.6h0.1c1.2,0,2.2,0.9,2.3,2.2c0.101,1.3-0.899,2.4-2.2,2.5h-0.1c-1.2,0-2.2-0.9-2.3-2.2
		C32.5,126.7,33.5,125.6,34.7,125.6z M15.8,140.3l16-9.8c0.8,0.9,1.9,1.5,3.2,1.5h0.3c0.3,0,0.6-0.1,1-0.2L60.8,184
		c-0.2,0.2-0.4,0.3-0.6,0.5l-49.9-37.4c0.4-0.7,0.6-1.4,0.5-2.2c0-0.5-0.2-0.9-0.3-1.4L15.8,140.3L15.8,140.3z M4.4,145.3
		c-0.1-1.3,0.9-2.4,2.2-2.5H6.7c1.199,0,2.199,0.9,2.3,2.2c0.1,1.3-0.9,2.4-2.2,2.5H6.7C5.5,147.4,4.4,146.5,4.4,145.3z M5.3,199.1
		H5.2C4,199.1,3,198.2,2.9,196.9c-0.1-1.301,0.9-2.4,2.2-2.5H5.2c1.199,0,2.199,0.899,2.3,2.199C7.5,197.9,6.5,199,5.3,199.1z
		 M8.3,199.4c0.6-0.801,0.9-1.7,0.9-2.7L59.1,188.6c0.3,1.101,1.101,2,2.101,2.5l-14.7,45.5c-0.2,0-0.5-0.1-0.7-0.1h-0.3
		c-0.8,0-1.5,0.3-2.101,0.7l-1.3-1.4L8.3,199.4z M43.5,240.8c-0.101-1.3,0.899-2.399,2.2-2.5h0.1c1.2,0,2.2,0.9,2.3,2.2
		c0.101,1.3-0.899,2.4-2.2,2.5h-0.1C44.6,243,43.6,242,43.5,240.8z M46,274.3H45.9c-1.199,0-2.199-0.899-2.3-2.2
		c-0.1-1.3,0.9-2.399,2.2-2.5h0.1c1.2,0,2.2,0.9,2.301,2.2C48.3,273.1,47.3,274.2,46,274.3z M49.2,274.4c0.3-0.5,0.6-1,0.699-1.5
		l41.9,2.6c0.1,1.1,0.6,2,1.3,2.7L83,292.5l-4,5.7c-0.601-0.3-1.2-0.5-1.9-0.5h-0.3c-0.4,0-0.8,0.1-1.2,0.3l-0.1-0.1v0.1
		c-0.4,0.2-0.8,0.3-1.101,0.6L57.1,282.2L49.2,274.4z M77.3,304.1h-0.1c-1.2,0-2.2-0.899-2.301-2.199c-0.1-1.301,0.9-2.4,2.2-2.5
		H77.2c1.199,0,2.199,0.899,2.3,2.199C79.6,302.9,78.6,304,77.3,304.1z M80.7,299.6c-0.2-0.3-0.4-0.6-0.7-0.8l5.7-8.1l8.399-11.9
		c0.5,0.3,1.101,0.4,1.8,0.4H96.2c1.1-0.101,2.1-0.601,2.8-1.4c0.3-0.399,0.6-0.8,0.8-1.3l0.3,0.1l20.101,4.5v0.601
		c0,0.3,0.1,0.6,0.1,0.8L80.7,299.6L80.7,299.6z M124.3,283.7h-0.1c-1.2,0-2.2-0.9-2.301-2.2c-0.1-1.3,0.9-2.4,2.2-2.5h0.101
		c1.199,0,2.199,0.9,2.3,2.2C126.6,282.5,125.6,283.6,124.3,283.7z M131.8,285.3L128,283c0.2-0.6,0.399-1.2,0.3-1.8
		c-0.1-1.101-0.6-2.101-1.3-2.8l31.5-45.2c0.1,0.1,0.3,0.1,0.399,0.1L147.8,291.4h-0.5c-1.2,0.1-2.2,0.699-2.9,1.5L131.8,285.3
		L131.8,285.3z M147.8,297.8h-0.1c-1.2,0-2.2-0.899-2.301-2.2c-0.1-1.3,0.9-2.399,2.2-2.5h0.101c1.199,0,2.199,0.9,2.3,2.2
		C150.1,296.6,149.1,297.7,147.8,297.8z M151,293c-0.5-0.7-1.2-1.2-2-1.4l11.1-58.1h0.4c0.399,0,0.7-0.1,1-0.2l21.3,38.601l-0.6,0.6
		c-0.7,0.8-1.101,1.9-1,3c0,0.4,0.1,0.8,0.3,1.2L151,293L151,293z M185.4,277.5h-0.1c-1.2,0-2.2-0.9-2.3-2.2
		c-0.101-1.3,0.899-2.399,2.2-2.5h0.1c1.2,0,2.2,0.9,2.3,2.2C187.7,276.3,186.7,277.4,185.4,277.5z M235.6,311.9h-0.1
		c-1.2,0-2.2-0.9-2.3-2.2c-0.101-1.3,0.899-2.4,2.199-2.5h0.101c1.2,0,2.2,0.899,2.3,2.2C237.8,310.7,236.8,311.8,235.6,311.9z
		 M301.3,307.2h-0.101c-1.2,0-2.2-0.9-2.3-2.2s0.9-2.4,2.2-2.5h0.1c1.2,0,2.2,0.9,2.301,2.2C303.6,306,302.6,307.1,301.3,307.2z
		 M305.3,304.5c-0.2-1.8-1.5-3.3-3.3-3.6l2.6-42c0.4,0,0.9-0.2,1.3-0.301l27.3,45.101c-0.1,0.1-0.3,0.2-0.399,0.399
		c-0.4,0.5-0.7,1.101-0.9,1.7L305.3,304.5L305.3,304.5z M336.1,309.1h-0.101c-1.199,0-2.199-0.899-2.3-2.199
		c-0.1-1.301,0.9-2.4,2.2-2.5H336c1.199,0,2.199,0.899,2.3,2.199C338.4,307.9,337.4,309,336.1,309.1z M336.199,302.7l-1.399-59.5
		c0.899-0.2,1.8-0.601,2.399-1.3c0.3-0.4,0.601-0.801,0.8-1.301l37.5,7.801v0.5c0.101,1,0.5,1.899,1.2,2.6l-39,51.6
		C337.1,302.8,336.699,302.7,336.199,302.7z M379.699,250.8h-0.1c-1.2,0-2.2-0.899-2.3-2.2c-0.101-1.3,0.899-2.399,2.2-2.5h0.1
		c1.2,0,2.2,0.9,2.3,2.2C381.9,249.6,381,250.7,379.699,250.8z M414.1,213.3h-0.101c-1.199,0-2.199-0.899-2.3-2.2
		c-0.1-1.3,0.9-2.399,2.2-2.5H414c1.199,0,2.199,0.9,2.3,2.2C416.4,212.2,415.4,213.3,414.1,213.3z"/>
</g>
</svg>
