<?xml version="1.0" encoding="UTF-8" standalone="no"?>
<!DOCTYPE svg PUBLIC "-//W3C//DTD SVG 20010904//EN" "http://www.w3.org/TR/2001/REC-SVG-20010904/DTD/svg10.dtd">
<svg version="1.0" xmlns="http://www.w3.org/2000/svg" width="900.000000pt" height="675.000000pt" viewBox="0 0 900.000000 675.000000" preserveAspectRatio="xMidYMid meet">
<metadata>
Created by potrace 1.10, written by Peter Selinger 2001-2011
</metadata>
<g transform="translate(0.000000,675.000000) scale(0.100000,-0.100000)" fill="#000000" stroke="none">
<path d="M4235 4740 c-22 -5 -64 -13 -93 -19 -109 -20 -221 -64 -357 -139 -74 -41 -174 -128 -262 -226 -24 -27 -43 -53 -43 -58 0 -6 -13 -26 -30 -45 -16 -18 -30 -38 -30 -44 0 -5 -11 -27 -25 -49 -53 -84 -94 -236 -113 -420 -5 -41 -8 -268 -7 -505 2 -367 5 -442 20 -510 25 -115 45 -184 56 -190 5 -4 9 -12 9 -20 0 -8 14 -34 30 -58 17 -25 30 -48 30 -52 0 -34 215 -245 249 -245 6 0 11 -4 11 -9 0 -5 12 -14 28 -20 15 -6 47 -22 72 -36 25 -14 54 -25 65 -25 12 0 25 -4 31 -10 5 -5 32 -14 59 -20 28 -5 75 -15 105 -21 60 -12 226 -6 275 10 17 5 64 20 105 32 41 12 92 33 112 46 21 13 42 23 47 23 30 0 198 147 256 225 52 69 125 206 125 234 0 9 4 21 9 27 6 5 14 34 20 64 5 30 15 75 20 100 12 55 13 843 1 915 -13 75 -30 139 -41 150 -5 5 -9 17 -9 26 0 41 -164 249 -196 249 -8 0 -14 4 -14 8 0 11 -134 77 -190 94 -60 17 -304 18 -322 1 -6 -7 -21 -13 -32 -13 -29 0 -145 -59 -196 -99 -51 -42 -97 -90 -125 -135 -11 -17 -25 -37 -32 -44 -7 -7 -13 -22 -13 -32 0 -10 -6 -31 -14 -47 -8 -15 -20 -41 -28 -57 -10 -23 -13 -130 -13 -521 l0 -492 29 -57 c59 -116 177 -188 311 -189 156 -1 286 97 334 251 16 51 18 100 17 463 -1 442 1 424 -59 455 -34 18 -63 13 -100 -17 l-27 -20 0 -402 c-1 -394 -1 -403 -23 -447 -12 -25 -38 -55 -57 -68 -30 -20 -44 -23 -99 -20 -61 4 -66 6 -102 47 -30 33 -39 53 -44 94 -4 29 -5 230 -3 447 3 361 5 399 23 440 55 131 153 228 275 273 62 23 215 23 267 1 85 -37 107 -51 158 -99 59 -55 108 -138 120 -200 4 -22 11 -45 16 -51 6 -7 8 -184 6 -440 -3 -339 -7 -444 -19 -502 -9 -41 -21 -79 -27 -85 -6 -6 -11 -18 -11 -27 0 -20 -27 -73 -67 -130 -131 -189 -331 -294 -558 -294 -224 0 -429 107 -552 288 -15 22 -30 43 -33 46 -3 3 -13 22 -22 43 -10 20 -24 52 -33 70 -34 75 -39 144 -39 632 0 488 5 554 40 655 27 75 77 172 118 230 48 66 155 180 170 180 6 0 21 11 33 24 26 27 138 96 157 96 7 0 21 7 32 15 10 8 28 15 39 15 11 0 32 6 47 14 73 39 328 53 458 27 196 -40 361 -128 488 -261 53 -54 172 -226 172 -246 0 -3 6 -20 14 -37 39 -86 48 -142 65 -382 7 -96 13 -120 45 -190 20 -44 42 -91 48 -105 6 -14 14 -32 19 -40 5 -8 12 -22 16 -30 3 -8 17 -40 31 -70 34 -74 52 -121 52 -142 0 -22 -50 -36 -106 -30 -32 3 -46 -1 -68 -20 -24 -21 -28 -34 -41 -148 -8 -69 -15 -150 -15 -180 0 -51 -22 -167 -41 -215 -4 -11 -10 -33 -14 -50 -14 -68 -98 -215 -144 -252 -9 -8 -15 -31 -15 -62 -1 -40 4 -54 22 -72 34 -31 93 -28 135 7 37 31 97 112 97 131 0 7 4 13 8 13 9 0 52 93 52 113 0 7 4 17 9 23 10 9 21 46 46 156 7 31 15 60 18 65 3 5 11 64 16 130 11 125 23 173 41 173 28 0 120 51 138 77 63 88 67 183 13 291 -10 21 -68 146 -86 187 -7 17 -28 62 -46 100 -29 61 -34 84 -40 180 -8 130 -26 263 -40 287 -5 10 -9 27 -9 39 0 20 -10 48 -51 135 -10 23 -19 45 -19 49 0 5 -11 23 -25 41 -14 18 -25 36 -25 39 0 4 -13 24 -30 45 -16 21 -30 41 -30 45 0 4 -35 42 -77 84 -103 100 -167 146 -293 206 -41 20 -83 40 -92 45 -18 10 -61 22 -143 40 -27 6 -63 16 -80 22 -39 13 -288 19 -340 8z"/>
</g>
</svg>